{
	"asset":{
		"version":"2.0",
		"generator":"Maxon Cinema 4D 2024.2.0 (#200000219)"
	},
	"scenes":[{
		"nodes":[0,
		1]
	}],
	"nodes":[{
		"name":"Cube",
		"mesh":0,
		"skin":0
	},
	{
		"name":"Joint",
		"translation":[0.011514246463775635,
		0.02831471897661686,
		0.0],
		"rotation":[-0.7071067690849304,
		0.0,
		0.0,
		-0.7071067690849304],
		"scale":[1.0,
		1.0,
		1.0],
		"children":[2]
	},
	{
		"name":"Joint.1",
		"translation":[-4.806030540989073e-24,
		4.440891999238953e-18,
		-1.7901458740234376],
		"rotation":[0.0,
		0.0,
		0.0,
		-1.0],
		"scale":[1.0,
		1.0,
		1.0],
		"children":[3]
	},
	{
		"name":"Joint.2",
		"translation":[7.07589036788613e-20,
		-1.776356799695581e-17,
		-2.365342617034912],
		"rotation":[1.2563846342608365e-35,
		1.025915924597721e-19,
		1.2246468525851679e-16,
		1.0],
		"scale":[1.0,
		1.0,
		1.0],
		"children":[4]
	},
	{
		"name":"Joint.3",
		"translation":[2.443188283776612e-20,
		-8.881783998477906e-18,
		-1.7816903591156006],
		"rotation":[0.0,
		-4.5643726034273766e-20,
		0.0,
		-1.0],
		"scale":[1.0,
		1.0,
		1.0]
	}],
	"meshes":[{
		"name":"Cube",
		"primitives":[{
			"attributes":{
				"POSITION":1,
				"NORMAL":2,
				"TEXCOORD_0":3,
				"JOINTS_0":4,
				"WEIGHTS_0":5
			},
			"indices":0
		}]
	}],
	"skins":[{
		"inverseBindMatrices":6,
		"joints":[1,
		2,
		3,
		4]
	}],
	"accessors":[{
		"bufferView":0,
		"type":"SCALAR",
		"componentType":5123,
		"count":8280,
		"byteOffset":0,
		"min":[0],
		"max":[8279]
	},
	{
		"bufferView":1,
		"type":"VEC3",
		"componentType":5126,
		"count":8280,
		"byteOffset":0,
		"min":[-1.0,
		-3.0,
		-1.0],
		"max":[1.0,
		3.0,
		1.0]
	},
	{
		"bufferView":1,
		"type":"VEC3",
		"componentType":5126,
		"count":8280,
		"byteOffset":12,
		"min":[-1.0,
		-1.0,
		-1.0],
		"max":[1.0,
		1.0,
		1.0]
	},
	{
		"bufferView":1,
		"type":"VEC2",
		"componentType":5126,
		"count":8280,
		"byteOffset":24,
		"min":[0.0,
		0.0],
		"max":[1.0,
		1.0]
	},
	{
		"bufferView":2,
		"type":"VEC4",
		"componentType":5123,
		"count":8280,
		"byteOffset":0,
		"min":[0,
		0,
		0,
		3],
		"max":[2,
		2,
		2,
		3]
	},
	{
		"bufferView":3,
		"type":"VEC4",
		"componentType":5126,
		"count":8280,
		"byteOffset":0,
		"min":[0.7504386901855469,
		0.0,
		0.0,
		0.0],
		"max":[1.0,
		0.24956130981445313,
		0.0,
		0.0]
	},
	{
		"bufferView":4,
		"type":"MAT4",
		"componentType":5126,
		"count":4,
		"byteOffset":0,
		"min":[1.0,
		-2.220446049250313e-16,
		-2.964706305257432e-19,
		0.0,
		-2.964706305257432e-19,
		6.123234262925839e-17,
		-1.0,
		0.0,
		0.0,
		1.0,
		6.123234262925839e-17,
		0.0,
		-0.011514246463775635,
		1.7752235622563835e-16,
		-2.9716851711273195,
		1.0],
		"max":[1.0,
		0.0,
		0.0,
		0.0,
		0.0,
		6.123234262925839e-17,
		-1.0,
		0.0,
		2.220446049250313e-16,
		1.0,
		6.123234262925839e-17,
		0.0,
		-0.011514246463775635,
		2.0672438618249179e-16,
		2.9654934406280519,
		1.0]
	}],
	"bufferViews":[{
		"target":34963,
		"buffer":0,
		"byteOffset":0,
		"byteLength":16560
	},
	{
		"target":34962,
		"buffer":0,
		"byteOffset":16560,
		"byteLength":264960,
		"byteStride":32
	},
	{
		"target":34962,
		"buffer":0,
		"byteOffset":281520,
		"byteLength":66240
	},
	{
		"target":34962,
		"buffer":0,
		"byteOffset":347760,
		"byteLength":132480
	},
	{
		"buffer":1,
		"byteOffset":0,
		"byteLength":256
	}],
	"buffers":[{
		"uri":"data:application/octet-stream;base64,",
		"byteLength":480240
	},
	{
		"uri":"data:application/octet-stream;base64,",
		"byteLength":256
	}]
}