{
	"asset":{
		"version":"2.0",
		"generator":"Maxon Cinema 4D 2024.2.0 (#200000219)"
	},
	"scenes":[{
		"nodes":[0,
		1]
	}],
	"nodes":[{
		"name":"Cube",
		"mesh":0,
		"skin":0
	},
	{
		"name":"Root",
		"translation":[0.008353977464139462,
		-1.0079846382141114,
		0.0],
		"rotation":[0.0,
		0.0,
		0.0,
		-1.0],
		"scale":[1.0,
		1.0,
		1.0],
		"children":[2]
	},
	{
		"name":"Joint",
		"translation":[-0.0004011059645563364,
		0.9811071753501892,
		2.830190509034436e-14],
		"rotation":[0.0,
		0.0,
		0.0,
		-1.0],
		"scale":[1.0,
		1.0,
		1.0],
		"children":[3]
	},
	{
		"name":"Joint.1",
		"translation":[0.014820174314081669,
		1.8229426145553589,
		-2.0763805679989337e-15],
		"rotation":[0.0,
		0.0,
		0.0,
		-1.0],
		"scale":[1.0,
		1.0,
		1.0],
		"children":[4]
	},
	{
		"name":"Joint.2",
		"translation":[-0.009880444966256619,
		1.568320393562317,
		-1.472236360600121e-10],
		"rotation":[0.0,
		0.0,
		0.0,
		-1.0],
		"scale":[1.0,
		1.0,
		1.0],
		"children":[5]
	},
	{
		"name":"Joint.3",
		"translation":[0.019760889932513238,
		2.559051036834717,
		-8.861971249332027e-15],
		"rotation":[-4.440892098500626e-16,
		-4.440892098500626e-16,
		1.9721522630525297e-31,
		-1.0],
		"scale":[1.0,
		1.0,
		1.0]
	}],
	"meshes":[{
		"name":"Cube",
		"primitives":[{
			"attributes":{
				"POSITION":1,
				"NORMAL":2,
				"TEXCOORD_0":3,
				"JOINTS_0":4,
				"WEIGHTS_0":5
			},
			"indices":0
		}]
	}],
	"skins":[{
		"inverseBindMatrices":6,
		"joints":[1,
		2,
		3,
		4,
		5]
	}],
	"accessors":[{
		"bufferView":0,
		"type":"SCALAR",
		"componentType":5123,
		"min":[0],
		"count":8280,
		"byteOffset":0,
		"max":[8279]
	},
	{
		"bufferView":1,
		"type":"VEC3",
		"componentType":5126,
		"min":[-1.0,
		-3.0,
		-1.0],
		"count":8280,
		"byteOffset":0,
		"max":[1.0,
		3.0,
		1.0]
	},
	{
		"bufferView":1,
		"type":"VEC3",
		"componentType":5126,
		"min":[-1.0,
		-1.0,
		-1.0],
		"count":8280,
		"byteOffset":12,
		"max":[1.0,
		1.0,
		1.0]
	},
	{
		"bufferView":1,
		"type":"VEC2",
		"componentType":5126,
		"min":[0.0,
		0.0],
		"count":8280,
		"byteOffset":24,
		"max":[1.0,
		1.0]
	},
	{
		"bufferView":2,
		"type":"VEC4",
		"componentType":5123,
		"min":[0,
		1,
		0,
		0],
		"count":8280,
		"byteOffset":0,
		"max":[3,
		3,
		3,
		3]
	},
	{
		"bufferView":3,
		"type":"VEC4",
		"componentType":5126,
		"min":[0.348393976688385,
		0.00012207217514514923,
		0.0,
		0.0],
		"count":8280,
		"byteOffset":0,
		"max":[0.9998626708984375,
		0.39110398292541506,
		0.31277942657470705,
		0.16592660546302796]
	},
	{
		"bufferView":4,
		"type":"MAT4",
		"componentType":5126,
		"min":[1.0,
		0.0,
		0.0,
		0.0,
		0.0,
		1.0,
		-8.881784197001253e-16,
		0.0,
		-8.881784197001253e-16,
		0.0,
		1.0,
		0.0,
		-0.03265349194407463,
		-2.9234366416931154,
		-2.830190509034436e-14,
		1.0],
		"count":5,
		"byteOffset":0,
		"max":[1.0,
		7.888609052210118e-31,
		8.881784197001253e-16,
		0.0,
		0.0,
		1.0,
		0.0,
		0.0,
		0.0,
		8.881784197001253e-16,
		1.0,
		0.0,
		-0.007952871732413769,
		4.007984638214111,
		1.4720884233820898e-10,
		1.0]
	}],
	"bufferViews":[{
		"target":34963,
		"buffer":0,
		"byteOffset":0,
		"byteLength":16560
	},
	{
		"target":34962,
		"buffer":0,
		"byteOffset":16560,
		"byteLength":264960,
		"byteStride":32
	},
	{
		"target":34962,
		"buffer":0,
		"byteOffset":281520,
		"byteLength":66240
	},
	{
		"target":34962,
		"buffer":0,
		"byteOffset":347760,
		"byteLength":132480
	},
	{
		"buffer":1,
		"byteOffset":0,
		"byteLength":320
	}],
	"buffers":[{
		"uri":"data:application/octet-stream;base64,",
		"byteLength":480240
	},
	{
		"uri":"data:application/octet-stream;base64,",
		"byteLength":320
	}]
}