{
	"asset":{
		"version":"2.0",
		"generator":"Maxon Cinema 4D 2024.2.0 (#200000219)"
	},
	"scenes":[{
		"nodes":[0]
	}],
	"nodes":[{
		"name":"Null",
		"translation":[0.0,
		1.5,
		0.0],
		"rotation":[0.0,
		0.0,
		0.0,
		-1.0],
		"children":[1,
		2],
		"scale":[1.0,
		1.0,
		1.0]
	},
	{
		"name":"Cube",
		"mesh":0,
		"skin":0
	},
	{
		"name":"Root",
		"translation":[-1.51320219039917,
		-0.0001560907403472811,
		2.8086733734269825e-16],
		"rotation":[-1.594625152943232e-16,
		-1.594625152943232e-16,
		0.7071067690849304,
		-0.7071067690849304],
		"children":[3],
		"scale":[1.0,
		1.0,
		1.0]
	},
	{
		"name":"Joint.1",
		"translation":[0.00587267242372036,
		0.5115303993225098,
		3.760743799707811e-11],
		"rotation":[-3.3306690738754698e-16,
		-5.665538686387998e-16,
		-1.8870035665091909e-31,
		1.0],
		"children":[4],
		"scale":[1.0,
		1.0,
		1.0]
	},
	{
		"name":"Joint.2",
		"translation":[-0.0062240674160420898,
		0.6450859904289246,
		-3.718827745306265e-16],
		"rotation":[-1.0547118733938988e-15,
		-4.440892098500626e-16,
		4.683861624749758e-31,
		-1.0],
		"children":[5],
		"scale":[1.0,
		1.0,
		1.0]
	},
	{
		"name":"Joint.3",
		"translation":[0.003563240636140108,
		0.6673972010612488,
		-9.94499771422852e-9],
		"rotation":[1.6653345369377349e-16,
		0.0,
		0.0,
		-1.0],
		"children":[6],
		"scale":[1.0,
		1.0,
		1.0]
	},
	{
		"name":"Joint.4",
		"translation":[-0.002053946489468217,
		0.6671655774116516,
		-9.941541811997468e-9],
		"rotation":[5.551115123125783e-17,
		0.0,
		0.0,
		-1.0],
		"scale":[1.0,
		1.0,
		1.0]
	}],
	"meshes":[{
		"primitives":[{
			"attributes":{
				"POSITION":1,
				"NORMAL":2,
				"TEXCOORD_0":3,
				"JOINTS_0":4,
				"WEIGHTS_0":5
			},
			"indices":0
		}],
		"name":"Cube"
	}],
	"skins":[{
		"inverseBindMatrices":6,
		"joints":[2,
		3,
		4,
		5,
		6]
	}],
	"accessors":[{
		"bufferView":0,
		"type":"SCALAR",
		"componentType":5123,
		"count":11220,
		"byteOffset":0,
		"min":[0],
		"max":[11219]
	},
	{
		"bufferView":1,
		"type":"VEC3",
		"componentType":5126,
		"count":11220,
		"byteOffset":0,
		"min":[-1.0,
		-0.4699999988079071,
		-1.0],
		"max":[1.0,
		0.4699999988079071,
		1.0]
	},
	{
		"bufferView":1,
		"type":"VEC3",
		"componentType":5126,
		"count":11220,
		"byteOffset":12,
		"min":[-1.0,
		-1.0,
		-1.0],
		"max":[1.0,
		1.0,
		1.0]
	},
	{
		"bufferView":1,
		"type":"VEC2",
		"componentType":5126,
		"count":11220,
		"byteOffset":24,
		"min":[0.0,
		0.0],
		"max":[1.0,
		1.0]
	},
	{
		"bufferView":2,
		"type":"VEC4",
		"componentType":5123,
		"count":11220,
		"byteOffset":0,
		"min":[1,
		1,
		0,
		0],
		"max":[3,
		3,
		3,
		3]
	},
	{
		"bufferView":3,
		"type":"VEC4",
		"componentType":5126,
		"count":11220,
		"byteOffset":0,
		"min":[0.5329060554504395,
		0.0011139085981994868,
		0.0,
		0.0],
		"max":[0.9988861083984375,
		0.46620890498161318,
		0.049820706248283389,
		0.0]
	},
	{
		"bufferView":4,
		"type":"MAT4",
		"componentType":5126,
		"count":5,
		"byteOffset":0,
		"min":[2.832769343193999e-16,
		1.0,
		-2.599282381942746e-15,
		0.0,
		-1.0,
		2.832769343193999e-16,
		-4.510281037539698e-16,
		0.0,
		-4.510281037539698e-16,
		-6.661338147750939e-16,
		1.0,
		0.0,
		-0.006028763018548489,
		-0.9779770374298096,
		-3.760783698347758e-11,
		1.0],
		"max":[2.832769343193999e-16,
		1.0,
		6.661338147750939e-16,
		0.0,
		-1.0,
		2.832769343193999e-16,
		4.371503159461554e-16,
		0.0,
		4.371503159461554e-16,
		2.599282381942746e-15,
		1.0,
		0.0,
		0.00019530435383785516,
		1.51320219039917,
		1.9848931387400627e-8,
		1.0]
	}],
	"bufferViews":[{
		"target":34963,
		"buffer":0,
		"byteOffset":0,
		"byteLength":22440
	},
	{
		"target":34962,
		"buffer":0,
		"byteOffset":22440,
		"byteLength":359040,
		"byteStride":32
	},
	{
		"target":34962,
		"buffer":0,
		"byteOffset":381480,
		"byteLength":89760
	},
	{
		"target":34962,
		"buffer":0,
		"byteOffset":471240,
		"byteLength":179520
	},
	{
		"buffer":1,
		"byteOffset":0,
		"byteLength":320
	}],
	"buffers":[{
		"uri":"data:application/octet-stream;base64,",
		"byteLength":650760
	},
	{
		"uri":"data:application/octet-stream;base64,",
		"byteLength":320
	}]
}