{
	"asset":{
		"version":"2.0",
		"generator":"Maxon Cinema 4D 2024.2.0 (#200000219)"
	},
	"scenes":[{
		"nodes":[0,
		1]
	}],
	"nodes":[{
		"name":"Cube",
		"mesh":0,
		"skin":0
	},
	{
		"name":"Root",
		"translation":[0.0,
		1.04110586643219,
		0.0],
		"rotation":[0.0,
		-8.040613114788646e-17,
		0.0,
		-1.0],
		"children":[2],
		"scale":[1.0,
		1.0,
		1.0]
	},
	{
		"name":"Joint.1",
		"translation":[1.2235456670657737e-34,
		0.45889410376548769,
		-7.608534453281929e-19],
		"rotation":[2.8611645345639235e-16,
		-8.040613114788646e-17,
		-2.300551912470637e-32,
		-1.0],
		"children":[3],
		"scale":[1.0,
		1.0,
		1.0]
	},
	{
		"name":"Joint.2",
		"translation":[1.0,
		-1.1368683518051719e-15,
		-4.460320916728272e-16],
		"rotation":[-9.860761315262648e-32,
		0.0,
		0.0,
		-1.0],
		"scale":[1.0,
		1.0,
		1.0]
	}],
	"meshes":[{
		"primitives":[{
			"attributes":{
				"POSITION":1,
				"NORMAL":2,
				"TEXCOORD_0":3,
				"JOINTS_0":4,
				"WEIGHTS_0":5
			},
			"indices":0
		}],
		"name":"Cube"
	}],
	"skins":[{
		"inverseBindMatrices":6,
		"joints":[1,
		2,
		3]
	}],
	"accessors":[{
		"bufferView":0,
		"type":"SCALAR",
		"componentType":5123,
		"count":11220,
		"byteOffset":0,
		"min":[0],
		"max":[11219]
	},
	{
		"bufferView":1,
		"type":"VEC3",
		"componentType":5126,
		"count":11220,
		"byteOffset":0,
		"min":[-1.0,
		-0.4699999988079071,
		-1.0],
		"max":[1.0,
		0.4699999988079071,
		1.0]
	},
	{
		"bufferView":1,
		"type":"VEC3",
		"componentType":5126,
		"count":11220,
		"byteOffset":12,
		"min":[-1.0,
		-1.0,
		-1.0],
		"max":[1.0,
		1.0,
		1.0]
	},
	{
		"bufferView":1,
		"type":"VEC2",
		"componentType":5126,
		"count":11220,
		"byteOffset":24,
		"min":[0.0,
		0.0],
		"max":[1.0,
		1.0]
	},
	{
		"bufferView":2,
		"type":"VEC4",
		"componentType":5123,
		"count":11220,
		"byteOffset":0,
		"min":[0,
		0,
		0,
		0],
		"max":[2,
		1,
		2,
		0]
	},
	{
		"bufferView":3,
		"type":"VEC4",
		"componentType":5126,
		"count":11220,
		"byteOffset":0,
		"min":[0.0,
		0.0,
		0.0,
		0.0],
		"max":[0.9914244413375855,
		0.47162583470344546,
		0.0,
		0.0]
	},
	{
		"bufferView":4,
		"type":"MAT4",
		"componentType":5126,
		"count":3,
		"byteOffset":0,
		"min":[1.0,
		-1.8404415299765096e-31,
		1.6081226229577292e-16,
		0.0,
		0.0,
		1.0,
		0.0,
		0.0,
		-3.2162452459154585e-16,
		-5.722329069127847e-16,
		1.0,
		0.0,
		-1.0,
		5.684341759025859e-16,
		0.0,
		1.0],
		"max":[1.0,
		0.0,
		3.2162452459154585e-16,
		0.0,
		0.0,
		1.0,
		5.722329069127847e-16,
		0.0,
		-1.6081226229577292e-16,
		0.0,
		1.0,
		0.0,
		0.0,
		0.45889410376548769,
		4.467929390176983e-16,
		1.0]
	}],
	"bufferViews":[{
		"target":34963,
		"buffer":0,
		"byteOffset":0,
		"byteLength":22440
	},
	{
		"target":34962,
		"buffer":0,
		"byteOffset":22440,
		"byteLength":359040,
		"byteStride":32
	},
	{
		"target":34962,
		"buffer":0,
		"byteOffset":381480,
		"byteLength":89760
	},
	{
		"target":34962,
		"buffer":0,
		"byteOffset":471240,
		"byteLength":179520
	},
	{
		"buffer":1,
		"byteOffset":0,
		"byteLength":192
	}],
	"buffers":[{
		"uri":"data:application/octet-stream;base64,",
		"byteLength":650760
	},
	{
		"uri":"data:application/octet-stream;base64,",
		"byteLength":192
	}]
}