{
	"asset":{
		"version":"2.0",
		"generator":"Maxon Cinema 4D 2024.2.0 (#200000219)"
	},
	"scenes":[{
		"nodes":[0,
		1]
	}],
	"nodes":[{
		"name":"Null",
		"translation":[0.0,
		1.5,
		0.0],
		"rotation":[0.0,
		0.0,
		0.0,
		-1.0],
		"children":[2],
		"scale":[1.0,
		1.0,
		1.0]
	},
	{
		"name":"Root",
		"translation":[-1.51320219039917,
		1.499843955039978,
		0.0],
		"rotation":[-0.004058802034705877,
		-0.7070951461791992,
		-0.004058802034705877,
		0.7070951461791992],
		"children":[3],
		"scale":[1.0,
		1.0,
		1.0]
	},
	{
		"name":"Cube",
		"mesh":0,
		"skin":0
	},
	{
		"name":"Joint.1",
		"translation":[3.760772596117512e-11,
		-2.8421708795129299e-16,
		-0.5115641355514526],
		"rotation":[-0.010563913732767105,
		-4.4406443413635545e-16,
		4.691320102508769e-18,
		-0.9999442100524902],
		"children":[4],
		"scale":[1.0,
		1.0,
		1.0]
	},
	{
		"name":"Joint.2",
		"translation":[-1.619657767235188e-20,
		-2.8421708795129299e-16,
		-0.6451160311698914],
		"rotation":[0.0074934749864041809,
		5.5830739337237037e-11,
		7.450371430905989e-9,
		-0.9999719262123108],
		"children":[5],
		"scale":[1.0,
		1.0,
		1.0]
	},
	{
		"name":"Joint.3",
		"translation":[6.562247154304429e-21,
		2.847774796552405e-16,
		-0.6674067378044128],
		"rotation":[-0.004208770114928484,
		-6.271683172798248e-11,
		2.6396308641478407e-13,
		-0.9999911189079285],
		"children":[6],
		"scale":[1.0,
		1.0,
		1.0]
	},
	{
		"name":"Joint.4",
		"translation":[1.862554265011913e-21,
		5.689945940763131e-16,
		-0.6671687364578247],
		"rotation":[6.229825683101708e-16,
		-4.9121892374612486e-17,
		-3.060208230660229e-32,
		-1.0],
		"scale":[1.0,
		1.0,
		1.0]
	}],
	"meshes":[{
		"primitives":[{
			"attributes":{
				"POSITION":1,
				"NORMAL":2,
				"TEXCOORD_0":3,
				"JOINTS_0":4,
				"WEIGHTS_0":5
			},
			"indices":0
		}],
		"name":"Cube"
	}],
	"skins":[{
		"inverseBindMatrices":6,
		"joints":[3,
		4,
		5,
		6]
	}],
	"accessors":[{
		"bufferView":0,
		"type":"SCALAR",
		"componentType":5123,
		"count":11220,
		"byteOffset":0,
		"min":[0],
		"max":[11219]
	},
	{
		"bufferView":1,
		"type":"VEC3",
		"componentType":5126,
		"count":11220,
		"byteOffset":0,
		"min":[-1.0,
		-0.4699999988079071,
		-1.0],
		"max":[1.0,
		0.4699999988079071,
		1.0]
	},
	{
		"bufferView":1,
		"type":"VEC3",
		"componentType":5126,
		"count":11220,
		"byteOffset":12,
		"min":[-1.0,
		-1.0,
		-1.0],
		"max":[1.0,
		1.0,
		1.0]
	},
	{
		"bufferView":1,
		"type":"VEC2",
		"componentType":5126,
		"count":11220,
		"byteOffset":24,
		"min":[0.0,
		0.0],
		"max":[1.0,
		1.0]
	},
	{
		"bufferView":2,
		"type":"VEC4",
		"componentType":5123,
		"count":11220,
		"byteOffset":0,
		"min":[0,
		0,
		0,
		3],
		"max":[2,
		2,
		2,
		3]
	},
	{
		"bufferView":3,
		"type":"VEC4",
		"componentType":5126,
		"count":11220,
		"byteOffset":0,
		"min":[0.5282062888145447,
		0.005142290610820055,
		0.0,
		0.0],
		"max":[0.9948577284812927,
		0.4629434645175934,
		0.10431067645549774,
		0.0]
	},
	{
		"bufferView":4,
		"type":"MAT4",
		"componentType":5126,
		"count":4,
		"byteOffset":0,
		"min":[-7.955697212125301e-11,
		-0.009647981263697148,
		-0.999995231628418,
		0.0,
		-1.4901617717555383e-8,
		0.9999534487724304,
		-0.009647981263697148,
		0.0,
		1.0,
		1.2928154686101529e-17,
		-1.0604494628203626e-15,
		0.0,
		-1.0205396250295706e-10,
		-0.0036356281489133837,
		-1.0016833543777466,
		1.0],
		"max":[4.587539376155192e-11,
		0.005338934250175953,
		-0.9999534487724304,
		0.0,
		-1.9203408202002365e-17,
		0.999995231628418,
		0.005338934250175953,
		0.0,
		1.0,
		1.4901688771828959e-8,
		-6.504838222833867e-16,
		0.0,
		-3.760868699798081e-11,
		0.004324784968048334,
		0.9779683351516724,
		1.0]
	}],
	"bufferViews":[{
		"target":34963,
		"buffer":0,
		"byteOffset":0,
		"byteLength":22440
	},
	{
		"target":34962,
		"buffer":0,
		"byteOffset":22440,
		"byteLength":359040,
		"byteStride":32
	},
	{
		"target":34962,
		"buffer":0,
		"byteOffset":381480,
		"byteLength":89760
	},
	{
		"target":34962,
		"buffer":0,
		"byteOffset":471240,
		"byteLength":179520
	},
	{
		"buffer":1,
		"byteOffset":0,
		"byteLength":256
	}],
	"buffers":[{
		"uri":"data:application/octet-stream;base64,",
		"byteLength":650760
	},
	{
		"uri":"data:application/octet-stream;base64,",
		"byteLength":256
	}]
}