{
	"asset":{
		"version":"2.0",
		"generator":"Maxon Cinema 4D 2024.2.0 (#200000219)"
	},
	"scenes":[{
		"nodes":[0,
		1]
	}],
	"nodes":[{
		"name":"Cube",
		"mesh":0,
		"skin":0
	},
	{
		"name":"Root",
		"translation":[-0.9992356300354004,
		1.497889518737793,
		0.0008386264089494944],
		"rotation":[0.0,
		-5.665538686387998e-16,
		0.0,
		1.0],
		"children":[2],
		"scale":[1.0,
		1.0,
		1.0]
	},
	{
		"name":"Joint.1",
		"translation":[0.6719714999198914,
		0.0,
		0.0053770351223647598],
		"rotation":[0.0,
		-2.220446049250313e-16,
		0.0,
		-1.0],
		"children":[3],
		"scale":[1.0,
		1.0,
		1.0]
	},
	{
		"name":"Joint.2",
		"translation":[0.7123798727989197,
		0.0,
		-0.005186485126614571],
		"rotation":[0.0,
		0.0,
		0.0,
		-1.0],
		"children":[4],
		"scale":[1.0,
		1.0,
		1.0]
	},
	{
		"name":"Joint.3",
		"translation":[0.6108008027076721,
		0.0,
		-1.294797591881177e-16],
		"rotation":[0.0,
		0.0,
		0.0,
		-1.0],
		"scale":[1.0,
		1.0,
		1.0]
	}],
	"meshes":[{
		"primitives":[{
			"attributes":{
				"POSITION":1,
				"NORMAL":2,
				"TEXCOORD_0":3,
				"JOINTS_0":4,
				"WEIGHTS_0":5
			},
			"indices":0
		}],
		"name":"Cube"
	}],
	"skins":[{
		"inverseBindMatrices":6,
		"joints":[1,
		2,
		3,
		4]
	}],
	"accessors":[{
		"bufferView":0,
		"type":"SCALAR",
		"componentType":5123,
		"count":11220,
		"byteOffset":0,
		"min":[0],
		"max":[11219]
	},
	{
		"bufferView":1,
		"type":"VEC3",
		"componentType":5126,
		"count":11220,
		"byteOffset":0,
		"min":[-1.0,
		-0.4699999988079071,
		-1.0],
		"max":[1.0,
		0.4699999988079071,
		1.0]
	},
	{
		"bufferView":1,
		"type":"VEC3",
		"componentType":5126,
		"count":11220,
		"byteOffset":12,
		"min":[-1.0,
		-1.0,
		-1.0],
		"max":[1.0,
		1.0,
		1.0]
	},
	{
		"bufferView":1,
		"type":"VEC2",
		"componentType":5126,
		"count":11220,
		"byteOffset":24,
		"min":[0.0,
		0.0],
		"max":[1.0,
		1.0]
	},
	{
		"bufferView":2,
		"type":"VEC4",
		"componentType":5123,
		"count":11220,
		"byteOffset":0,
		"min":[0,
		0,
		0,
		3],
		"max":[2,
		2,
		2,
		3]
	},
	{
		"bufferView":3,
		"type":"VEC4",
		"componentType":5126,
		"count":11220,
		"byteOffset":0,
		"min":[0.5230792760848999,
		0.0018310826271772385,
		0.0,
		0.0],
		"max":[0.9981689453125,
		0.4766155481338501,
		0.06520180404186249,
		0.0]
	},
	{
		"bufferView":4,
		"type":"MAT4",
		"componentType":5126,
		"count":4,
		"byteOffset":0,
		"min":[1.0,
		0.0,
		-1.6000817656592237e-15,
		0.0,
		0.0,
		1.0,
		0.0,
		0.0,
		2.6781410963925625e-16,
		0.0,
		1.0,
		0.0,
		-0.9959165453910828,
		0.002110498957335949,
		-0.00621566129848361,
		1.0],
		"max":[1.0,
		0.0,
		-2.6781410963925625e-16,
		0.0,
		0.0,
		1.0,
		0.0,
		0.0,
		1.6000817656592237e-15,
		0.0,
		1.0,
		0.0,
		0.9992356300354004,
		0.002110498957335949,
		-0.0008386264089494944,
		1.0]
	}],
	"bufferViews":[{
		"target":34963,
		"buffer":0,
		"byteOffset":0,
		"byteLength":22440
	},
	{
		"target":34962,
		"buffer":0,
		"byteOffset":22440,
		"byteLength":359040,
		"byteStride":32
	},
	{
		"target":34962,
		"buffer":0,
		"byteOffset":381480,
		"byteLength":89760
	},
	{
		"target":34962,
		"buffer":0,
		"byteOffset":471240,
		"byteLength":179520
	},
	{
		"buffer":1,
		"byteOffset":0,
		"byteLength":256
	}],
	"buffers":[{
		"uri":"data:application/octet-stream;base64,",
		"byteLength":650760
	},
	{
		"uri":"data:application/octet-stream;base64,",
		"byteLength":256
	}]
}