{
	"asset":{
		"version":"2.0",
		"generator":"Maxon Cinema 4D 2024.2.0 (#200000219)"
	},
	"scenes":[{
		"nodes":[0]
	}],
	"nodes":[{
		"name":"Null",
		"translation":[0.0,
		1.5,
		0.0],
		"rotation":[0.0,
		0.0,
		0.0,
		-1.0],
		"children":[1,
		2],
		"scale":[1.0,
		1.0,
		1.0]
	},
	{
		"name":"Cube",
		"mesh":0,
		"skin":0
	},
	{
		"name":"Root",
		"translation":[0.0,
		-0.4648270606994629,
		7.121728612550029e-17],
		"rotation":[-2.255140518769849e-16,
		0.0,
		0.0,
		-1.0],
		"children":[3,
		4,
		5,
		6],
		"scale":[1.0,
		1.0,
		1.0]
	},
	{
		"name":"Joint.1",
		"translation":[0.00587267242372036,
		0.509702205657959,
		3.7607448405418967e-11],
		"rotation":[1.651002342423498e-16,
		-6.361279902559656e-16,
		-0.7071067690849304,
		0.7071067690849304],
		"children":[7],
		"scale":[1.0,
		1.0,
		1.0]
	},
	{
		"name":"Joint.3",
		"translation":[0.00587267242372036,
		0.509702205657959,
		3.7607448405418967e-11],
		"rotation":[0.5,
		-0.5,
		0.5,
		-0.5],
		"children":[8],
		"scale":[1.0,
		1.0,
		1.0]
	},
	{
		"name":"Joint.5",
		"translation":[0.00587267242372036,
		0.509702205657959,
		3.7607448405418967e-11],
		"rotation":[0.7071067690849304,
		-0.7071067690849304,
		3.573162959971351e-16,
		2.7072067672797978e-16],
		"children":[9],
		"scale":[1.0,
		1.0,
		1.0]
	},
	{
		"name":"Joint.7",
		"translation":[0.00587267242372036,
		0.509702205657959,
		3.7607448405418967e-11],
		"rotation":[0.5,
		-0.5,
		-0.5,
		0.5],
		"children":[10],
		"scale":[1.0,
		1.0,
		1.0]
	},
	{
		"name":"Joint.2",
		"translation":[-0.0062240674160420898,
		1.0,
		3.4586155181406e-16],
		"rotation":[-1.0547118733938988e-15,
		-4.440892098500626e-16,
		4.683861624749758e-31,
		-1.0],
		"scale":[1.0,
		1.0,
		1.0]
	},
	{
		"name":"Joint.4",
		"translation":[-0.0062240674160420898,
		1.0,
		3.4586155181406e-16],
		"rotation":[-1.0547118733938988e-15,
		-4.440892098500626e-16,
		4.683861624749758e-31,
		-1.0],
		"scale":[1.0,
		1.0,
		1.0]
	},
	{
		"name":"Joint.6",
		"translation":[-0.0062240674160420898,
		1.0,
		3.4586155181406e-16],
		"rotation":[-1.0547118733938988e-15,
		-4.440892098500626e-16,
		4.683861624749758e-31,
		-1.0],
		"scale":[1.0,
		1.0,
		1.0]
	},
	{
		"name":"Joint.8",
		"translation":[-0.0062240674160420898,
		1.0,
		3.4586155181406e-16],
		"rotation":[-1.0547118733938988e-15,
		-4.440892098500626e-16,
		4.683861624749758e-31,
		-1.0],
		"scale":[1.0,
		1.0,
		1.0]
	}],
	"meshes":[{
		"primitives":[{
			"attributes":{
				"POSITION":1,
				"NORMAL":2,
				"TEXCOORD_0":3,
				"JOINTS_0":4,
				"WEIGHTS_0":5
			},
			"indices":0
		}],
		"name":"Cube"
	}],
	"skins":[{
		"inverseBindMatrices":6,
		"joints":[2,
		3,
		7,
		4,
		8,
		5,
		9,
		6,
		10]
	}],
	"accessors":[{
		"bufferView":0,
		"type":"SCALAR",
		"componentType":5123,
		"count":11220,
		"byteOffset":0,
		"min":[0],
		"max":[11219]
	},
	{
		"bufferView":1,
		"type":"VEC3",
		"componentType":5126,
		"count":11220,
		"byteOffset":0,
		"min":[-1.0,
		-0.4699999988079071,
		-1.0],
		"max":[1.0,
		0.4699999988079071,
		1.0]
	},
	{
		"bufferView":1,
		"type":"VEC3",
		"componentType":5126,
		"count":11220,
		"byteOffset":12,
		"min":[-1.0,
		-1.0,
		-1.0],
		"max":[1.0,
		1.0,
		1.0]
	},
	{
		"bufferView":1,
		"type":"VEC2",
		"componentType":5126,
		"count":11220,
		"byteOffset":24,
		"min":[0.0,
		0.0],
		"max":[1.0,
		1.0]
	},
	{
		"bufferView":2,
		"type":"VEC4",
		"componentType":5123,
		"count":11220,
		"byteOffset":0,
		"min":[1,
		1,
		1,
		1],
		"max":[7,
		7,
		7,
		7]
	},
	{
		"bufferView":3,
		"type":"VEC4",
		"componentType":5126,
		"count":11220,
		"byteOffset":0,
		"min":[0.29365986585617068,
		0.03790340945124626,
		0.00013733119703829288,
		0.00003051804378628731],
		"max":[0.928679347038269,
		0.49956512451171877,
		0.21469444036483766,
		0.20985732972621919]
	},
	{
		"bufferView":4,
		"type":"MAT4",
		"componentType":5126,
		"count":9,
		"byteOffset":0,
		"min":[-8.881784197001253e-16,
		-1.0,
		-1.0,
		0.0,
		-1.0,
		-1.5387336839186569e-16,
		-1.3253287356462807e-15,
		0.0,
		-6.730727086790012e-16,
		-1.0,
		-1.0,
		0.0,
		0.0,
		-1.0058727264404297,
		-0.00587267242372036,
		1.0],
		"max":[1.0,
		1.0,
		1.0,
		0.0,
		0.0,
		1.0,
		2.1510571102112409e-16,
		0.0,
		1.3253287356462807e-15,
		1.0,
		1.0,
		0.0,
		0.05109923332929611,
		0.4648270606994629,
		0.00587267242372036,
		1.0]
	}],
	"bufferViews":[{
		"target":34963,
		"buffer":0,
		"byteOffset":0,
		"byteLength":22440
	},
	{
		"target":34962,
		"buffer":0,
		"byteOffset":22440,
		"byteLength":359040,
		"byteStride":32
	},
	{
		"target":34962,
		"buffer":0,
		"byteOffset":381480,
		"byteLength":89760
	},
	{
		"target":34962,
		"buffer":0,
		"byteOffset":471240,
		"byteLength":179520
	},
	{
		"buffer":1,
		"byteOffset":0,
		"byteLength":576
	}],
	"buffers":[{
		"uri":"data:application/octet-stream;base64,",
		"byteLength":650760
	},
	{
		"uri":"data:application/octet-stream;base64,",
		"byteLength":576
	}]
}