{
	"asset":{
		"version":"2.0",
		"generator":"Maxon Cinema 4D 2024.2.0 (#200000219)"
	},
	"scenes":[{
		"nodes":[0]
	}],
	"nodes":[{
		"name":"Null",
		"translation":[0.0,
		1.5,
		0.0],
		"rotation":[0.0,
		0.0,
		0.0,
		-1.0],
		"children":[1,
		2],
		"scale":[1.0,
		1.0,
		1.0]
	},
	{
		"name":"Cube",
		"mesh":0,
		"skin":0
	},
	{
		"name":"Root",
		"translation":[-1.51320219039917,
		-0.0001560907403472811,
		0.0],
		"rotation":[2.185751579730777e-16,
		-3.3306690738754698e-16,
		-7.280015189783752e-32,
		-1.0],
		"children":[3],
		"scale":[1.0,
		1.0,
		1.0]
	},
	{
		"name":"Joint.1",
		"translation":[0.5115303993225098,
		-0.00587267242372036,
		3.7607895964075769e-11],
		"rotation":[1.7763568394002506e-15,
		-1.0106430784888625e-15,
		1.795262744666215e-30,
		1.0],
		"children":[4],
		"scale":[1.0,
		1.0,
		1.0]
	},
	{
		"name":"Joint.2",
		"translation":[0.6450859904289246,
		0.0062240674160420898,
		-4.122248626957603e-16],
		"rotation":[-1.505696609060969e-14,
		3.3306690738754698e-16,
		1.2246468525851679e-16,
		1.0],
		"children":[5],
		"scale":[1.0,
		1.0,
		1.0]
	},
	{
		"name":"Joint.3",
		"translation":[0.6673972010612488,
		-0.003563240636140108,
		-9.944993273336422e-9],
		"rotation":[-1.865174681370263e-14,
		-3.3306690738754698e-16,
		6.212279628615468e-30,
		-1.0],
		"children":[6],
		"scale":[1.0,
		1.0,
		1.0]
	},
	{
		"name":"Joint.4",
		"translation":[0.6671655774116516,
		0.002053946489468217,
		-9.941541811997468e-9],
		"rotation":[1.8207657603852568e-14,
		-5.665538686387998e-16,
		1.0315619324511072e-29,
		1.0],
		"scale":[1.0,
		1.0,
		1.0]
	}],
	"meshes":[{
		"primitives":[{
			"attributes":{
				"POSITION":1,
				"NORMAL":2,
				"TEXCOORD_0":3,
				"JOINTS_0":4,
				"WEIGHTS_0":5
			},
			"indices":0
		}],
		"name":"Cube"
	}],
	"skins":[{
		"inverseBindMatrices":6,
		"joints":[2,
		3,
		4,
		5,
		6]
	}],
	"accessors":[{
		"bufferView":0,
		"type":"SCALAR",
		"componentType":5123,
		"count":11220,
		"byteOffset":0,
		"min":[0],
		"max":[11219]
	},
	{
		"bufferView":1,
		"type":"VEC3",
		"componentType":5126,
		"count":11220,
		"byteOffset":0,
		"min":[-1.0,
		-0.4699999988079071,
		-1.0],
		"max":[1.0,
		0.4699999988079071,
		1.0]
	},
	{
		"bufferView":1,
		"type":"VEC3",
		"componentType":5126,
		"count":11220,
		"byteOffset":12,
		"min":[-1.0,
		-1.0,
		-1.0],
		"max":[1.0,
		1.0,
		1.0]
	},
	{
		"bufferView":1,
		"type":"VEC2",
		"componentType":5126,
		"count":11220,
		"byteOffset":24,
		"min":[0.0,
		0.0],
		"max":[1.0,
		1.0]
	},
	{
		"bufferView":2,
		"type":"VEC4",
		"componentType":5123,
		"count":11220,
		"byteOffset":0,
		"min":[1,
		1,
		0,
		0],
		"max":[3,
		3,
		3,
		3]
	},
	{
		"bufferView":3,
		"type":"VEC4",
		"componentType":5126,
		"count":11220,
		"byteOffset":0,
		"min":[0.530144214630127,
		0.0018463416490703822,
		0.0,
		0.0],
		"max":[0.9981536865234375,
		0.46781110763549807,
		0.0641184076666832,
		0.0]
	},
	{
		"bufferView":4,
		"type":"MAT4",
		"componentType":5126,
		"count":5,
		"byteOffset":0,
		"min":[1.0,
		-8.881784197001253e-16,
		-1.6000817656592237e-15,
		0.0,
		-2.307767749195349e-30,
		1.0,
		-4.672044001674536e-14,
		0.0,
		-6.661338147750939e-16,
		-2.6998368818365038e-14,
		1.0,
		0.0,
		-0.9779770374298096,
		-0.00019530435383785516,
		-3.760917965944799e-11,
		1.0],
		"max":[1.0,
		-2.9120060759135008e-31,
		6.661338147750939e-16,
		0.0,
		8.881784197001253e-16,
		1.0,
		2.6998368818365038e-14,
		0.0,
		1.6000817656592237e-15,
		4.672044001674536e-14,
		1.0,
		0.0,
		1.51320219039917,
		0.006028763018548489,
		1.9848927834686948e-8,
		1.0]
	}],
	"bufferViews":[{
		"target":34963,
		"buffer":0,
		"byteOffset":0,
		"byteLength":22440
	},
	{
		"target":34962,
		"buffer":0,
		"byteOffset":22440,
		"byteLength":359040,
		"byteStride":32
	},
	{
		"target":34962,
		"buffer":0,
		"byteOffset":381480,
		"byteLength":89760
	},
	{
		"target":34962,
		"buffer":0,
		"byteOffset":471240,
		"byteLength":179520
	},
	{
		"buffer":1,
		"byteOffset":0,
		"byteLength":320
	}],
	"buffers":[{
		"uri":"data:application/octet-stream;base64,",
		"byteLength":650760
	},
	{
		"uri":"data:application/octet-stream;base64,",
		"byteLength":320
	}]
}